# xmcd
#
# Track frame offsets:
#	150
#	8343
#	15404
#	20739
#	29676
#	37363
#	42597
#	49628
#	64296
#	72239
#	80891
#	94423
#
# Disc length: 1453 seconds
#
# Revision: 0
# Processed by: cddbd v1.5.2PL0 Copyright (c) Steve Scherf et al.
# Submitted via: EasyCDDAExtractor 2010.6.0.0
#
DISCID=a605ab0c
DTITLE=Various Artist - Legend Begins Rare And Unreleased Recordings Cd 3
DYEAR=1900
DGENRE=
TTITLE0=Hank Williams - Fan It
TTITLE1=Hank Williams and Pee Wee Moultrie - Alexander's Ragtime Band
TTITLE2=Hank Williams - Freight Train Blues
TTITLE3=Hank Williams - New San Antonio Rose
TTITLE4=Hank Williams - St. Louis Blues
TTITLE5=Hank Williams - Greenback Dollar
TTITLE6=Hank Williams - Lovesick Blues
TTITLE7=Hank Williams - Moaning The Blues
TTITLE8=Audrey Williams - There's A Bluebird On Your Windowsill
TTITLE9=Hank Williams - Hank Talks About Infantile Paralysis
TTITLE10=Hank Williams and Audrey - Help Me Understand
TTITLE11=Hank Williams - When Got Dips His Love In My Heart
EXTD=
EXTT0=
EXTT1=
EXTT2=
EXTT3=
EXTT4=
EXTT5=
EXTT6=
EXTT7=
EXTT8=
EXTT9=
EXTT10=
EXTT11=
PLAYORDER=
